<svg width="24" height="25" fill="none" xmlns="http://www.w3.org/2000/svg"><path fill-rule="evenodd" clip-rule="evenodd" d="M19 4.955h-1v-1.5a.5.5 0 0 0-.5-.5h-1a.5.5 0 0 0-.5.5v1.5H8v-1.5a.5.5 0 0 0-.5-.5h-1a.5.5 0 0 0-.5.5v1.5H5a2 2 0 0 0-2 2v13a2 2 0 0 0 2 2h14a2 2 0 0 0 2-2v-13a2 2 0 0 0-2-2Zm0 15H5v-11h14v11Zm-8.06-2.998a.48.48 0 0 1-.35-.152l-2.13-2.15a.5.5 0 0 1 0-.7l.53-.51a.51.51 0 0 1 .71 0l1.23 1.24 3.36-3.36a.51.51 0 0 1 .71 0l.54.53a.51.51 0 0 1 0 .71l-4.25 4.24a.48.48 0 0 1-.35.152Z" fill="#515455"/></svg>