<svg width="24" height="25" fill="none" xmlns="http://www.w3.org/2000/svg"><path d="M21.333 20.956H2.666A.667.667 0 0 1 2 20.29V5.628a.667.667 0 0 1 .666-.667h18.667a.667.667 0 0 1 .666.667v14.667a.664.664 0 0 1-.666.661ZM13 16.838v2.118h7v-2h-3.333a.668.668 0 0 1-.666-.667V9.622a.667.667 0 0 1 .666-.666H20v-2h-7v2.125a4.013 4.013 0 0 0-1-.125c-.337 0-.673.041-1 .125V6.958H4v2h3.333a.667.667 0 0 1 .666.666v6.667a.667.667 0 0 1-.666.667H4v2h7v-2.126a4.001 4.001 0 0 0 2 0v.006Zm5-5.874v4h2v-4h-2Zm-14 0v4h2v-4H4Zm8 4c-.353 0-.7-.094-1.005-.271v-1.736c0-.564.006-1.135.006-1.729A1.99 1.99 0 0 1 13 11.225v3.465c-.304.175-.65.267-1 .266v.008Z" fill="#515455"/></svg>